<svg width="23" height="24" viewBox="0 0 23 24" fill="none" xmlns="http://www.w3.org/2000/svg">
<g clip-path="url(#clip0_2_893)">
<path d="M11.5 23.5C12.2625 23.5 12.9938 23.1971 13.5329 22.658C14.0721 22.1188 14.375 21.3875 14.375 20.625H8.625C8.625 21.3875 8.9279 22.1188 9.46707 22.658C10.0062 23.1971 10.7375 23.5 11.5 23.5ZM11.5 3.25716L10.3543 3.4886C9.05476 3.75339 7.8866 4.45906 7.04756 5.48618C6.20852 6.5133 5.75014 7.79878 5.75 9.12504C5.75 10.0278 5.55737 12.2832 5.09019 14.5042C4.86019 15.6067 4.54969 16.7553 4.13713 17.75H18.8629C18.4503 16.7553 18.1412 15.6082 17.9098 14.5042C17.4426 12.2832 17.25 10.0278 17.25 9.12504C17.2495 7.79903 16.791 6.51389 15.952 5.48706C15.113 4.46024 13.945 3.75478 12.6457 3.49004L11.5 3.25572V3.25716ZM20.4412 17.75C20.7618 18.3926 21.1327 18.9015 21.5625 19.1875H1.4375C1.86731 18.9015 2.23819 18.3926 2.55875 17.75C3.8525 15.1625 4.3125 10.39 4.3125 9.12504C4.3125 5.64629 6.785 2.74254 10.0697 2.07985C10.0496 1.87997 10.0717 1.67811 10.1344 1.48727C10.1972 1.29644 10.2992 1.12088 10.434 0.971908C10.5687 0.822937 10.7332 0.703867 10.9169 0.622375C11.1005 0.540883 11.2991 0.498779 11.5 0.498779C11.7009 0.498779 11.8995 0.540883 12.0831 0.622375C12.2668 0.703867 12.4313 0.822937 12.566 0.971908C12.7008 1.12088 12.8028 1.29644 12.8656 1.48727C12.9283 1.67811 12.9504 1.87997 12.9303 2.07985C14.5551 2.41033 16.0157 3.29218 17.0649 4.57607C18.1141 5.85996 18.6873 7.46699 18.6875 9.12504C18.6875 10.39 19.1475 15.1625 20.4412 17.75Z" fill="#FAFAFA"/>
</g>
<defs>
<clipPath id="clip0_2_893">
<rect width="23" height="23" fill="white" transform="translate(0 0.5)"/>
</clipPath>
</defs>
</svg>
