<svg width="37" height="37" viewBox="0 0 37 37" fill="none" xmlns="http://www.w3.org/2000/svg">
<g clip-path="url(#clip0_2_913)">
<path fill-rule="evenodd" clip-rule="evenodd" d="M0.333252 11.75C0.333252 10.5565 0.807358 9.41193 1.65127 8.56802C2.49519 7.72411 3.63978 7.25 4.83325 7.25H21.7083C22.7997 7.24987 23.854 7.64643 24.6748 8.36584C25.4956 9.08524 26.027 10.0784 26.17 11.1605L33.1675 8.051C33.51 7.89839 33.8852 7.83379 34.2591 7.86309C34.6329 7.89239 34.9935 8.01465 35.308 8.21877C35.6226 8.42288 35.8811 8.70237 36.0602 9.03183C36.2392 9.36129 36.3331 9.73028 36.3333 10.1053V26.8948C36.3329 27.2694 36.239 27.6381 36.0601 27.9673C35.8812 28.2965 35.6229 28.5758 35.3086 28.7798C34.9944 28.9839 34.6342 29.1062 34.2607 29.1358C33.8871 29.1653 33.5122 29.1011 33.1698 28.949L26.17 25.8395C26.027 26.9216 25.4956 27.9148 24.6748 28.6342C23.854 29.3536 22.7997 29.7501 21.7083 29.75H4.83325C3.63978 29.75 2.49519 29.2759 1.65127 28.432C0.807358 27.5881 0.333252 26.4435 0.333252 25.25V11.75ZM26.2083 23.3938L34.0833 26.8948V10.1053L26.2083 13.6062V23.3938ZM4.83325 9.5C4.23651 9.5 3.66422 9.73705 3.24226 10.159C2.8203 10.581 2.58325 11.1533 2.58325 11.75V25.25C2.58325 25.8467 2.8203 26.419 3.24226 26.841C3.66422 27.2629 4.23651 27.5 4.83325 27.5H21.7083C22.305 27.5 22.8773 27.2629 23.2992 26.841C23.7212 26.419 23.9583 25.8467 23.9583 25.25V11.75C23.9583 11.1533 23.7212 10.581 23.2992 10.159C22.8773 9.73705 22.305 9.5 21.7083 9.5H4.83325Z" fill="#FAFAFA"/>
</g>
<defs>
<clipPath id="clip0_2_913">
<rect width="36" height="36" fill="white" transform="translate(0.333252 0.5)"/>
</clipPath>
</defs>
</svg>
