<svg width="37" height="37" viewBox="0 0 37 37" fill="none" xmlns="http://www.w3.org/2000/svg">
<g clip-path="url(#clip0_2_921)">
<path fill-rule="evenodd" clip-rule="evenodd" d="M25.3288 28.3212C25.9705 27.6374 26.3813 26.7693 26.5033 25.8395L33.5008 28.949C33.8433 29.1016 34.2185 29.1662 34.5923 29.1369C34.9661 29.1076 35.3267 28.9853 35.6413 28.7812C35.9558 28.5771 36.2144 28.2976 36.3934 27.9681C36.5725 27.6387 36.6663 27.2697 36.6665 26.8947V10.1052C36.6662 9.73054 36.5723 9.36188 36.3934 9.03268C36.2144 8.70349 35.9561 8.42419 35.6419 8.22014C35.3276 8.01608 34.9674 7.89373 34.5939 7.86419C34.2204 7.83465 33.8454 7.89885 33.503 8.05097L26.5033 11.1605C26.3603 10.0784 25.8289 9.08521 25.0081 8.36581C24.1873 7.64641 23.133 7.24984 22.0415 7.24997H10.2785L11.885 9.49997H22.0415C22.6382 9.49997 23.2105 9.73703 23.6325 10.159C24.0545 10.5809 24.2915 11.1532 24.2915 11.75V25.25C24.2919 25.6608 24.1799 26.0638 23.9675 26.4155L25.3288 28.3212ZM3.8795 9.90497C3.58215 10.1121 3.33929 10.3881 3.17161 10.7093C3.00393 11.0306 2.91641 11.3876 2.9165 11.75V25.25C2.9165 25.8467 3.15356 26.419 3.57551 26.841C3.99747 27.2629 4.56977 27.5 5.1665 27.5H16.448L18.0545 29.75H5.1665C3.97303 29.75 2.82844 29.2759 1.98452 28.432C1.14061 27.588 0.666504 26.4434 0.666504 25.25V11.75C0.666504 10.2312 1.418 8.88797 2.57225 8.07347L3.87725 9.90497H3.8795ZM34.4165 26.8925L26.5415 23.3937V13.6062L34.4165 10.1052V26.8947V26.8925ZM24.5008 34.9025L2.00075 3.40247L3.83225 2.09747L26.3323 33.5975L24.5008 34.9025Z" fill="#FAFAFA"/>
</g>
<defs>
<clipPath id="clip0_2_921">
<rect width="36" height="36" fill="white" transform="translate(0.666504 0.5)"/>
</clipPath>
</defs>
</svg>
