<svg width="16" height="17" viewBox="0 0 16 17" fill="none" xmlns="http://www.w3.org/2000/svg">
<g clip-path="url(#clip0_2_3168)">
<path d="M6 1.12817V4.12817H1V1.12817H6ZM1 0.128174C0.734784 0.128174 0.48043 0.233531 0.292893 0.421067C0.105357 0.608603 0 0.862957 0 1.12817L0 4.12817C0 4.39339 0.105357 4.64774 0.292893 4.83528C0.48043 5.02282 0.734784 5.12817 1 5.12817H6C6.26522 5.12817 6.51957 5.02282 6.70711 4.83528C6.89464 4.64774 7 4.39339 7 4.12817V1.12817C7 0.862957 6.89464 0.608603 6.70711 0.421067C6.51957 0.233531 6.26522 0.128174 6 0.128174L1 0.128174ZM15 12.1282V15.1282H10V12.1282H15ZM10 11.1282C9.73478 11.1282 9.48043 11.2335 9.29289 11.4211C9.10536 11.6086 9 11.863 9 12.1282V15.1282C9 15.3934 9.10536 15.6477 9.29289 15.8353C9.48043 16.0228 9.73478 16.1282 10 16.1282H15C15.2652 16.1282 15.5196 16.0228 15.7071 15.8353C15.8946 15.6477 16 15.3934 16 15.1282V12.1282C16 11.863 15.8946 11.6086 15.7071 11.4211C15.5196 11.2335 15.2652 11.1282 15 11.1282H10ZM6 8.12817V15.1282H1V8.12817H6ZM1 7.12817C0.734784 7.12817 0.48043 7.23353 0.292893 7.42107C0.105357 7.6086 0 7.86296 0 8.12817L0 15.1282C0 15.3934 0.105357 15.6477 0.292893 15.8353C0.48043 16.0228 0.734784 16.1282 1 16.1282H6C6.26522 16.1282 6.51957 16.0228 6.70711 15.8353C6.89464 15.6477 7 15.3934 7 15.1282V8.12817C7 7.86296 6.89464 7.6086 6.70711 7.42107C6.51957 7.23353 6.26522 7.12817 6 7.12817H1ZM15 1.12817V8.12817H10V1.12817H15ZM10 0.128174C9.73478 0.128174 9.48043 0.233531 9.29289 0.421067C9.10536 0.608603 9 0.862957 9 1.12817V8.12817C9 8.39339 9.10536 8.64774 9.29289 8.83528C9.48043 9.02282 9.73478 9.12817 10 9.12817H15C15.2652 9.12817 15.5196 9.02282 15.7071 8.83528C15.8946 8.64774 16 8.39339 16 8.12817V1.12817C16 0.862957 15.8946 0.608603 15.7071 0.421067C15.5196 0.233531 15.2652 0.128174 15 0.128174L10 0.128174Z" fill="#FAFAFA"/>
</g>
<defs>
<clipPath id="clip0_2_3168">
<rect width="16" height="16" fill="white" transform="translate(0 0.128174)"/>
</clipPath>
</defs>
</svg>
