<svg width="16" height="17" viewBox="0 0 16 17" fill="none" xmlns="http://www.w3.org/2000/svg">
<g clip-path="url(#clip0_2_3226)">
<path d="M8.00003 4.8822C7.57376 4.8822 7.15166 4.96616 6.75784 5.12929C6.36402 5.29242 6.00618 5.53151 5.70476 5.83293C5.40334 6.13435 5.16424 6.49219 5.00112 6.88601C4.83799 7.27983 4.75403 7.70193 4.75403 8.1282C4.75403 8.55447 4.83799 8.97657 5.00112 9.37039C5.16424 9.76421 5.40334 10.1221 5.70476 10.4235C6.00618 10.7249 6.36402 10.964 6.75784 11.1271C7.15166 11.2902 7.57376 11.3742 8.00003 11.3742C8.86092 11.3742 9.68655 11.0322 10.2953 10.4235C10.904 9.81473 11.246 8.98909 11.246 8.1282C11.246 7.26731 10.904 6.44168 10.2953 5.83293C9.68655 5.22419 8.86092 4.8822 8.00003 4.8822ZM5.75403 8.1282C5.75403 7.53253 5.99066 6.96125 6.41187 6.54004C6.83307 6.11883 7.40435 5.8822 8.00003 5.8822C8.5957 5.8822 9.16698 6.11883 9.58819 6.54004C10.0094 6.96125 10.246 7.53253 10.246 8.1282C10.246 8.72388 10.0094 9.29516 9.58819 9.71636C9.16698 10.1376 8.5957 10.3742 8.00003 10.3742C7.40435 10.3742 6.83307 10.1376 6.41187 9.71636C5.99066 9.29516 5.75403 8.72388 5.75403 8.1282Z" fill="#404040"/>
<path d="M9.79599 1.47116C9.26899 -0.318838 6.73099 -0.318838 6.20399 1.47116L6.10999 1.79016C6.07318 1.91511 6.00889 2.03025 5.9218 2.12712C5.83472 2.22399 5.72707 2.30015 5.60673 2.35001C5.48639 2.39988 5.35642 2.42218 5.22634 2.41528C5.09627 2.40838 4.96938 2.37247 4.85499 2.31016L4.56299 2.15016C2.92299 1.25816 1.12999 3.05216 2.02299 4.69116L2.18199 4.98316C2.24429 5.09755 2.28021 5.22444 2.28711 5.35452C2.294 5.48459 2.2717 5.61456 2.22184 5.7349C2.17198 5.85524 2.09582 5.9629 1.99895 6.04998C1.90207 6.13706 1.78694 6.20136 1.66199 6.23816L1.34299 6.33216C-0.447012 6.85916 -0.447012 9.39716 1.34299 9.92416L1.66199 10.0182C1.78694 10.055 1.90207 10.1193 1.99895 10.2063C2.09582 10.2934 2.17198 10.4011 2.22184 10.5214C2.2717 10.6418 2.294 10.7717 2.28711 10.9018C2.28021 11.0319 2.24429 11.1588 2.18199 11.2732L2.02199 11.5652C1.12999 13.2052 2.92299 14.9992 4.56299 14.1052L4.85499 13.9462C4.96938 13.8839 5.09627 13.8479 5.22634 13.841C5.35642 13.8341 5.48639 13.8564 5.60673 13.9063C5.72707 13.9562 5.83472 14.0323 5.9218 14.1292C6.00889 14.2261 6.07318 14.3412 6.10999 14.4662L6.20399 14.7852C6.73099 16.5752 9.26899 16.5752 9.79599 14.7852L9.88999 14.4662C9.92679 14.3412 9.99109 14.2261 10.0782 14.1292C10.1653 14.0323 10.2729 13.9562 10.3932 13.9063C10.5136 13.8564 10.6436 13.8341 10.7736 13.841C10.9037 13.8479 11.0306 13.8839 11.145 13.9462L11.437 14.1062C13.077 14.9992 14.871 13.2042 13.977 11.5652L13.818 11.2732C13.7557 11.1588 13.7198 11.0319 13.7129 10.9018C13.706 10.7717 13.7283 10.6418 13.7781 10.5214C13.828 10.4011 13.9042 10.2934 14.001 10.2063C14.0979 10.1193 14.213 10.055 14.338 10.0182L14.657 9.92416C16.447 9.39716 16.447 6.85916 14.657 6.33216L14.338 6.23816C14.213 6.20136 14.0979 6.13706 14.001 6.04998C13.9042 5.9629 13.828 5.85524 13.7781 5.7349C13.7283 5.61456 13.706 5.48459 13.7129 5.35452C13.7198 5.22444 13.7557 5.09755 13.818 4.98316L13.978 4.69116C14.871 3.05116 13.076 1.25816 11.437 2.15116L11.145 2.31016C11.0306 2.37247 10.9037 2.40838 10.7736 2.41528C10.6436 2.42218 10.5136 2.39988 10.3932 2.35001C10.2729 2.30015 10.1653 2.22399 10.0782 2.12712C9.99109 2.03025 9.92679 1.91511 9.88999 1.79016L9.79599 1.47116ZM7.16299 1.75416C7.40899 0.919162 8.59099 0.919162 8.83699 1.75416L8.93099 2.07316C9.01001 2.34125 9.14802 2.58825 9.33491 2.79606C9.5218 3.00387 9.75283 3.16722 10.0111 3.27414C10.2693 3.38106 10.5482 3.42883 10.8273 3.41395C11.1064 3.39907 11.3786 3.32193 11.624 3.18816L11.915 3.02816C12.679 2.61316 13.515 3.44816 13.099 4.21316L12.94 4.50516C12.8064 4.75059 12.7295 5.02279 12.7147 5.30182C12.7 5.58085 12.7479 5.85963 12.8549 6.11775C12.9619 6.37586 13.1253 6.60676 13.3332 6.79354C13.541 6.98031 13.788 7.11822 14.056 7.19716L14.374 7.29116C15.209 7.53716 15.209 8.71916 14.374 8.96516L14.055 9.05916C13.7869 9.13818 13.5399 9.2762 13.3321 9.46309C13.1243 9.64998 12.9609 9.88101 12.854 10.1392C12.7471 10.3975 12.6993 10.6764 12.7142 10.9554C12.7291 11.2345 12.8062 11.5068 12.94 11.7522L13.1 12.0432C13.515 12.8072 12.68 13.6432 11.915 13.2272L11.624 13.0682C11.3785 12.9344 11.1062 12.8573 10.8271 12.8425C10.5479 12.8277 10.269 12.8755 10.0108 12.9825C9.75253 13.0896 9.52151 13.253 9.33467 13.461C9.14783 13.6689 9.00989 13.916 8.93099 14.1842L8.83699 14.5022C8.59099 15.3372 7.40899 15.3372 7.16299 14.5022L7.06899 14.1832C6.98993 13.9152 6.85194 13.6683 6.66512 13.4606C6.4783 13.2529 6.24738 13.0896 5.98928 12.9827C5.73118 12.8758 5.45243 12.828 5.17346 12.8428C4.89448 12.8576 4.62235 12.9346 4.37699 13.0682L4.08499 13.2282C3.32099 13.6432 2.48499 12.8082 2.90099 12.0432L3.05999 11.7522C3.19394 11.5067 3.27124 11.2344 3.28621 10.9552C3.30119 10.676 3.25346 10.397 3.14653 10.1386C3.0396 9.88025 2.87618 9.64911 2.66827 9.46214C2.46035 9.27518 2.21321 9.13715 1.94499 9.05816L1.62599 8.96416C0.790988 8.71816 0.790988 7.53616 1.62599 7.29016L1.94499 7.19616C2.21279 7.11707 2.45953 6.9791 2.66713 6.79235C2.87473 6.6056 3.03795 6.37479 3.14484 6.11682C3.25173 5.85884 3.29959 5.58024 3.2849 5.30138C3.27022 5.02253 3.19338 4.75048 3.05999 4.50516L2.89999 4.21316C2.48499 3.44916 3.31999 2.61316 4.08499 3.02916L4.37699 3.18816C4.62235 3.32174 4.89448 3.39874 5.17346 3.41351C5.45243 3.42829 5.73118 3.38048 5.98928 3.27358C6.24738 3.16668 6.4783 3.00339 6.66512 2.79568C6.85194 2.58798 6.98993 2.34111 7.06899 2.07316L7.16299 1.75416Z" fill="#404040"/>
</g>
<defs>
<clipPath id="clip0_2_3226">
<rect width="16" height="16" fill="white" transform="translate(0 0.128174)"/>
</clipPath>
</defs>
</svg>
